<svg width="25" height="25" viewBox="0 0 25 25" fill="none" xmlns="http://www.w3.org/2000/svg">
<path d="M5.26904 11.5002C5.26657 10.6146 5.43885 9.73727 5.77603 8.91841C6.1132 8.09956 6.60864 7.35528 7.23394 6.72822C7.85925 6.10116 8.60214 5.60365 9.42006 5.26419C10.238 4.92474 11.1148 4.75 12.0004 4.75C12.8859 4.75 13.7628 4.92474 14.5807 5.26419C15.3986 5.60365 16.1415 6.10116 16.7668 6.72822C17.3921 7.35528 17.8876 8.09956 18.2247 8.91841C18.5619 9.73727 18.7342 10.6146 18.7317 11.5002V11.5002C18.7317 14.8579 19.4342 16.8063 20.0529 17.8712C20.1196 17.985 20.1551 18.1144 20.1558 18.2462C20.1565 18.3781 20.1224 18.5078 20.0569 18.6223C19.9915 18.7368 19.8971 18.832 19.7831 18.8984C19.6691 18.9647 19.5397 18.9998 19.4078 19.0002H4.59222C4.46034 18.9998 4.33087 18.9647 4.21689 18.8984C4.1029 18.832 4.00844 18.7368 3.94301 18.6223C3.87759 18.5077 3.84352 18.378 3.84425 18.2461C3.84498 18.1142 3.88048 17.9849 3.94716 17.8711C4.56622 16.8061 5.26904 14.8577 5.26904 11.5002H5.26904Z" stroke="#18191C" stroke-width="1.5" stroke-linecap="round" stroke-linejoin="round"/>
<path d="M9 19V19.75C9 20.5456 9.31607 21.3087 9.87868 21.8713C10.4413 22.4339 11.2044 22.75 12 22.75C12.7956 22.75 13.5587 22.4339 14.1213 21.8713C14.6839 21.3087 15 20.5456 15 19.75V19" stroke="#18191C" stroke-width="1.5" stroke-linecap="round" stroke-linejoin="round"/>
<path d="M17.1968 3.24902C18.7229 4.21245 19.9531 5.57885 20.7516 7.19736" stroke="#18191C" stroke-width="1.5" stroke-linecap="round" stroke-linejoin="round"/>
<path d="M3.24829 7.19736C4.04681 5.57885 5.27703 4.21245 6.80315 3.24902" stroke="#18191C" stroke-width="1.5" stroke-linecap="round" stroke-linejoin="round"/>
<circle cx="18" cy="7" r="6" fill="#E05151" stroke="white" stroke-width="2"/>
</svg>
