<svg width="16" height="16" viewBox="0 0 16 16" fill="none" xmlns="http://www.w3.org/2000/svg">
<g clip-path="url(#clip0_4410_1397)">
<path d="M7.33325 2.6665H2.66659C2.31296 2.6665 1.97382 2.80698 1.72378 3.05703C1.47373 3.30708 1.33325 3.64622 1.33325 3.99984V13.3332C1.33325 13.6868 1.47373 14.0259 1.72378 14.276C1.97382 14.526 2.31296 14.6665 2.66659 14.6665H11.9999C12.3535 14.6665 12.6927 14.526 12.9427 14.276C13.1928 14.0259 13.3333 13.6868 13.3333 13.3332V8.6665" stroke="#181818" stroke-linecap="round" stroke-linejoin="round"/>
<path d="M12.3333 1.66665C12.5985 1.40144 12.9582 1.25244 13.3333 1.25244C13.7083 1.25244 14.068 1.40144 14.3333 1.66665C14.5985 1.93187 14.7475 2.29158 14.7475 2.66665C14.7475 3.04173 14.5985 3.40144 14.3333 3.66665L7.99992 9.99999L5.33325 10.6667L5.99992 7.99999L12.3333 1.66665Z" stroke="#181818" stroke-linecap="round" stroke-linejoin="round"/>
</g>
<defs>
<clipPath id="clip0_4410_1397">
<rect width="16" height="16" fill="white"/>
</clipPath>
</defs>
</svg>
