<svg width="38" height="56" viewBox="0 0 38 56" fill="none" xmlns="http://www.w3.org/2000/svg">
<path opacity="0.27" d="M12.6851 0C15.5115 9.39167 15.7347 17.2614 15.4743 22.4583C15.2884 26.319 14.2471 46.55 3.57363 53.5288C2.53232 54.197 -0.10814 55.7561 0.00342946 55.9788C0.152188 56.2387 5.09842 54.0485 7.81327 52.5637C12.0901 50.2621 18.6727 45.622 24.7718 35.822C25.7759 35.9334 30.6849 36.2674 34.2179 32.8894C38.4948 28.8432 39.2386 20.8993 35.8543 18.5606C33.437 16.8902 28.8254 18.3008 24.7718 21.6417C24.3627 19.9341 23.842 18.1523 23.1354 16.2591C20.3462 8.90909 16.1438 3.56364 12.6851 0Z" fill="#76390E"/>
</svg>
