<svg width="94" height="77" viewBox="0 0 94 77" fill="none" xmlns="http://www.w3.org/2000/svg">
<path d="M15.5927 51.8593C13.2194 51.4521 7.21218 50.0456 3.31859 44.9008C-2.61449 37.091 0.574541 26.172 3.87482 20.3979C9.06627 11.3297 18.5221 8.18354 30.3883 4.22311C37.4338 1.89127 44.1456 -0.329523 53.2677 0.0406108C58.3109 0.262691 75.4055 1.00296 85.6401 13.6985C91.7215 21.2122 92.389 29.2812 93.724 45.1969C94.3543 52.4885 93.8723 56.4489 92.6115 60.2243C91.6845 62.9633 88.6808 71.7355 80.0408 75.2517C75.5168 77.1024 71.3266 76.7323 69.0275 76.3621C71.1041 73.29 73.1806 70.2549 75.2943 67.1828C76.4809 67.2568 80.7082 67.3309 83.9344 64.4068C88.3471 60.3724 89.1258 52.3405 85.8997 50.1937C83.5265 48.6021 78.8171 50.1567 74.7381 53.821C74.3673 51.4892 73.774 48.9352 72.7727 46.3073C68.1004 33.7598 57.94 26.8753 52.9711 24.0253C51.0057 26.5422 44.776 33.9078 33.7256 36.8319C24.9743 39.1267 17.7063 37.4981 14.4802 36.5358C14.851 41.6436 15.2218 46.7515 15.5927 51.8593Z" fill="#ADB2BA"/>
</svg>
