<svg width="74" height="94" viewBox="0 0 74 94" fill="none" xmlns="http://www.w3.org/2000/svg">
<path d="M0 21.9594C0.368209 25.892 1.031 31.405 2.50384 37.9103C3.46119 42.1369 4.05031 44.8198 5.30222 48.1643C7.18009 53.1995 10.7517 62.8288 20.0674 69.1135C22.3135 70.6572 26.0324 72.7154 31.261 73.9282C32.1079 74.0017 32.9548 74.112 33.8016 74.1855C34.0962 75.7291 34.4644 78.0078 34.8326 80.7643C35.7163 87.8576 35.2745 90.026 37.1155 91.9372C39.3616 94.2526 42.9332 94.0321 43.7065 93.9586C49.8555 93.5543 52.9485 87.4533 53.0958 87.1225C52.1016 85.3216 51.1075 83.1165 50.2974 80.5437C48.53 74.847 48.4932 69.7751 48.7877 66.3203C51.6229 62.2407 54.7527 59.1167 57.9193 56.691C59.1344 55.7722 60.1654 54.5226 61.9696 53.8978C64.5471 53.0157 65.8726 53.8978 67.7873 53.3098C70.9539 52.3174 72.3163 48.2379 72.9054 46.5472C75.1515 39.8582 72.39 33.2426 70.6226 29.31C69.0393 25.7082 64.9153 16.7773 54.8632 9.79421C44.5165 2.59062 23.8231 -5.42154 10.1258 4.97956C7.76922 6.78046 2.39336 11.5951 0 21.9594Z" fill="white"/>
</svg>
