<svg width="55" height="67" viewBox="0 0 55 67" fill="none" xmlns="http://www.w3.org/2000/svg">
<path d="M46.8796 0C44.9955 0.626857 42.5943 1.58559 39.8975 2.91305C39.1217 3.28179 37.1638 4.27737 35.0581 5.64171C31.8072 7.70665 29.4429 9.88223 26.7461 12.6109C23.3105 16.1139 19.8379 19.617 15.7004 25.2218C12.2278 29.9417 6.83429 37.3533 2.95537 48.2311C1.4038 52.5454 0.51719 56.2697 0 58.9246C2.03182 57.7446 3.87893 57.1546 5.31967 56.8228C13.6317 54.9422 21.6111 59.1458 29.1843 63.0913C32.0288 64.5663 34.2823 66.0044 35.8339 67C36.6466 63.0176 37.4593 58.9983 38.272 55.016C38.974 51.6604 39.6389 48.268 40.3408 44.9125C41.4121 43.9906 42.8529 42.6263 44.4414 40.8563C47.4337 37.4639 53.3814 30.716 54.1941 21.35C55.1915 10.546 48.7636 2.28619 46.8796 0Z" fill="#CB6015"/>
</svg>
