<svg width="83" height="53" viewBox="0 0 83 53" fill="none" xmlns="http://www.w3.org/2000/svg">
<path d="M61.7722 0.946848C59.7668 2.42953 57.613 4.43115 55.6448 7.06291C48.3291 16.8857 49.3318 28.4135 49.8517 32.1573C43.3529 30.8229 32.4351 29.5255 19.549 32.4909C11.862 34.2701 5.69747 37.0502 1.16693 39.5707C1.87251 40.0155 2.83803 40.5345 4.0635 40.8681C11.0079 42.7585 18.3236 36.939 18.5464 37.3467C18.7692 37.7174 10.3766 41.6465 10.8222 45.0566C11.1193 47.3548 15.2413 48.578 19.5119 49.8754C23.1141 50.9503 26.5305 51.9882 31.0982 51.4692C37.3741 50.765 41.719 47.6143 43.65 45.9833C45.5068 46.91 48.2548 48.1332 51.7084 49.2082C58.0586 51.1356 66.8226 53.8045 72.6529 50.1719C76.4407 47.7996 77.5919 42.2395 79.7458 31.1936C82.4938 17.0339 83.8678 9.95415 80.08 5.46903C75.0667 -0.498763 65.003 0.502043 61.7722 0.946848Z" fill="white" stroke="#18191C" stroke-width="1.17937" stroke-miterlimit="10"/>
</svg>
