<svg width="42" height="80" viewBox="0 0 42 80" fill="none" xmlns="http://www.w3.org/2000/svg">
<path opacity="0.29" d="M32.1805 0C34.6616 12.05 34.9949 22.2889 34.8097 29.6815C34.6245 36.5567 33.9209 41.5837 33.1803 46.6477C30.9954 61.9136 29.8845 69.528 25.6629 73.0765C17.6641 79.8038 3.40691 74.7029 0 73.4092C3.22175 75.553 14.8126 82.8348 26.1443 78.8058C27.3293 78.3622 28.6255 77.8078 29.8845 76.9946C31.2177 74.7398 32.9952 71.2653 34.1432 66.7188C34.8097 64.0205 34.9949 62.0614 35.2541 59.7697C35.6615 56.0734 36.365 50.6767 37.5501 43.9124C38.624 44.8365 39.7349 45.7606 40.8088 46.6847C41.1792 44.7995 41.6606 41.9164 41.7717 38.3679C42.1049 29.7924 40.2163 23.2869 38.0315 15.8573C36.8465 11.7913 34.9949 6.32073 32.1805 0Z" fill="#76390E"/>
</svg>
