<svg width="201" height="129" viewBox="0 0 201 129" fill="none" xmlns="http://www.w3.org/2000/svg">
<path opacity="0.08" d="M47.8607 0C50.2592 1.25232 70.85 12.4495 72.2892 32.3393C73.101 43.3156 67.7134 51.6398 64.3185 56.7228C46.0156 84.2001 9.81568 89.0621 0 90.0934C14.2807 99.5595 64.1709 130.757 118.711 128.915C130.851 128.51 149.671 127.663 170.077 116.466C185.391 108.068 195.317 97.2758 201 90.0934C197.494 87.9203 194.026 85.784 190.52 83.6108C164.763 92.4139 138.969 101.217 113.212 109.983C111.884 75.9496 110.556 41.9527 109.227 7.91909C88.747 5.34078 68.3038 2.68881 47.8607 0Z" fill="#18191C"/>
</svg>
