<svg width="66" height="105" viewBox="0 0 66 105" fill="none" xmlns="http://www.w3.org/2000/svg">
<path opacity="0.32" d="M36.2913 0C39.6543 6.27101 43.0173 13.7594 45.863 22.3543C51.4434 39.3229 52.9217 54.5578 53.0326 65.9563C49.263 66.1776 45.4934 66.399 41.7239 66.6203C42.9434 75.3628 44.2 84.1422 45.4195 92.8847C43.0543 91.5199 39.4326 89.7861 34.776 88.7533C33.2608 88.4213 27.6804 87.3146 21.7304 88.3106C9.2391 90.4132 1.7 100.631 0 103.066C1.7 103.767 3.88042 104.431 6.50433 104.578C14.5608 105.058 20.4369 100.41 22.1739 98.9344C27.6804 101.701 32.4847 103.029 35.8847 103.693C41.8347 104.91 48.7826 106.312 52.6261 102.623C52.9217 102.328 53.5869 101.627 55.0282 98.0491C57.2826 92.3683 58.4652 87.0564 60.0173 77.4286C60.35 75.289 60.8304 72.4117 61.3108 68.9811C62.2347 69.9033 63.1956 70.8624 64.1195 71.7847C64.563 70.1247 65.1173 67.6532 65.413 64.6283C66.1891 56.7711 64.6739 50.5739 63.2325 45.5202C57.4304 25.0841 53.9565 12.7634 42.3521 3.83639C39.95 2.06575 37.7326 0.774654 36.2913 0Z" fill="#76390E"/>
</svg>
