<svg width="103" height="157" viewBox="0 0 103 157" fill="none" xmlns="http://www.w3.org/2000/svg">
<path d="M16.4806 7.0749C15.1533 15.7232 13.8629 24.4451 12.6093 33.2038C7.74257 67.1715 3.53946 100.55 0 133.377C0.0737387 134.481 0.368694 136.248 1.47477 138.014C2.58086 139.817 4.05562 140.737 4.75613 141.216C11.4664 146 14.8215 148.429 18.2135 150.048C34.4728 157.887 52.4651 156.967 52.4651 156.967C56.2626 156.783 63.8209 156.304 71.9321 153.066C72.3745 152.882 75.4716 151.447 81.6656 148.539C87.2698 145.926 88.2653 145.411 89.6294 144.16C92.8739 141.179 94.1275 137.499 94.9755 134.886C96.7821 129.329 96.5977 124.618 96.524 123.478C96.524 123.478 96.1553 114.314 95.8972 60.8048C95.8604 49.9116 96.9295 33.9031 102.681 14.1408C96.7083 11.2335 91.1042 8.54695 84.3571 5.30844C79.7116 3.06356 75.3979 1.00268 69.2038 0.26665C67.4341 0.0458422 65.8487 -0.027765 63.4891 0.00903637C53.903 0.082639 46.013 1.55469 42.621 2.14351C36.0214 3.21075 27.099 4.83002 16.4806 7.0749Z" fill="#CB6015"/>
</svg>
