<svg width="25" height="73" viewBox="0 0 25 73" fill="none" xmlns="http://www.w3.org/2000/svg">
<path opacity="0.4" d="M3.12684 0C5.36031 2.861 13.9592 14.6022 12.3585 30.7279C11.4651 39.7196 7.74269 46.3333 5.39755 49.8259C6.73763 48.7856 7.89159 48.0796 8.74775 47.5966C11.0184 46.3333 12.4702 45.553 14.3314 45.6645C14.8898 45.7016 16.2298 45.8131 17.1977 46.5934C20.0267 48.9713 19.0589 57.4057 14.0336 61.3442C11.279 63.4993 8.04046 63.7222 6.40259 63.685C4.28079 66.6947 2.12179 69.7043 0 72.7511C1.41453 72.974 3.57354 73.1598 6.06758 72.7882C7.14709 72.6396 11.4651 71.8593 15.5598 68.5896C19.58 65.3571 21.218 61.4185 22.2975 58.7433C25.2754 51.3122 24.6798 44.7727 23.6375 32.9944C23.1908 27.7554 22.9302 25.0802 21.888 21.5504C20.7712 17.7233 19.0217 12.0756 14.0336 7.02244C10.4601 3.30686 6.43982 1.22614 3.12684 0Z" fill="#76390E"/>
</svg>
