<svg width="69" height="80" viewBox="0 0 69 80" fill="none" xmlns="http://www.w3.org/2000/svg">
<path opacity="0.4" d="M68.2774 0C61.6841 13.0889 58.1111 24.1189 56.0115 31.8398C52.9543 43.1639 51.8861 52.0982 43.9666 59.5251C42.6774 60.7384 38.8835 64.2312 32.9163 66.4004C20.3925 70.9227 11.1102 64.8195 3.22763 71.2904C2.3436 72.0257 -0.271654 73.864 0.0230227 75.9597C0.317699 77.9451 3.04345 78.9746 3.44863 79.1584C6.69007 80.4085 10.042 79.1217 14.2412 77.4304C18.9928 75.5185 18.4771 74.8567 20.6135 74.4891C25.1073 73.717 27.1701 76.548 33.1373 78.4231C35.6789 79.1952 43.1931 81.5483 48.6078 78.4231C52.5859 76.1068 53.8015 71.7683 55.7169 64.4518C57.0429 59.4883 58.4058 52.2453 58.1848 43.1272C59.6581 44.2669 61.1315 45.4067 62.6049 46.5465C64.5203 31.031 66.3989 15.5155 68.2774 0Z" fill="#76390E"/>
</svg>
