<svg width="40" height="71" viewBox="0 0 40 71" fill="none" xmlns="http://www.w3.org/2000/svg">
<path d="M13.7598 0C15.2835 1.18705 17.2532 2.81925 19.3344 4.93369C19.929 5.52722 21.4528 7.08523 22.9765 9.01419C25.355 11.9818 26.8787 14.8011 28.5511 18.251C30.7066 22.6653 32.8621 27.0797 35.0176 33.6827C36.8387 39.247 39.626 48.0015 39.9604 59.6495C40.1091 64.2493 39.8118 68.1072 39.5145 70.8152C37.9908 69.0717 36.467 67.9217 35.2035 67.1798C28.1051 62.8397 19.4831 64.3977 11.3442 65.8815C8.29671 66.4379 5.76958 67.1057 4.02287 67.5879C4.46884 63.5074 4.87764 59.4269 5.32361 55.3464C5.69525 51.9336 6.02973 48.4838 6.40137 45.0339C5.69526 43.8097 4.72898 42.0662 3.83705 39.8776C2.09034 35.6858 -1.40306 27.4506 0.6038 18.2139C2.9823 7.60456 11.3442 1.5951 13.7598 0Z" fill="#CB6015"/>
</svg>
