<svg width="83" height="57" viewBox="0 0 83 57" fill="none" xmlns="http://www.w3.org/2000/svg">
<path d="M61.9469 0.61718C58.9168 2.86708 55.2586 6.48168 53.9283 11.6454C52.9676 15.4813 53.8914 17.7312 53.5588 22.6736C53.3371 26.1038 52.4502 30.9355 49.6049 36.6894C43.1384 35.3616 32.2746 34.0706 19.4523 37.0213C11.8033 38.7917 5.66928 41.558 1.16116 44.0661C1.86324 44.5087 2.82398 45.0251 4.04339 45.357C10.9534 47.2381 18.2329 41.4474 18.4546 41.8531C18.6763 42.2219 10.3252 46.1316 10.7686 49.5249C11.0642 51.8116 15.1659 53.0288 19.4153 54.3197C22.9997 55.3894 26.3992 56.4221 30.9443 55.9057C37.1891 55.2049 41.5125 52.0698 43.434 50.4469C45.2816 51.369 48.016 52.5862 51.4525 53.6558C57.7713 55.5738 66.4919 58.2294 72.2934 54.6148C76.0624 52.2542 77.2079 46.7217 79.3511 35.7304C81.9378 22.3416 83.1572 15.6288 79.6837 10.1332C75.1386 2.79333 65.7898 1.09667 61.9469 0.61718Z" fill="white" stroke="#18191C" stroke-width="1.17937" stroke-miterlimit="10"/>
</svg>
